<svg xmlns="http://www.w3.org/2000/svg" viewBox="0 0 400 240" role="img">
<defs><linearGradient id="g" x1="0" y1="0" x2="1" y2="1"><stop offset="0" stop-color="#1F90DA"/><stop offset="1" stop-color="#0B3B78"/></linearGradient>
<filter id="s" x="-20%" y="-20%" width="140%" height="140%"><feDropShadow dx="0" dy="6" stdDeviation="6" flood-color="#000" flood-opacity=".3"/></filter></defs>
<rect width="400" height="240" fill="url(#g)"/><circle cx="60" cy="40" r="90" fill="#fff" opacity=".06"/>
<g filter="url(#s)"><rect x="125" y="22" width="35" height="35" rx="5" fill="#fff"/><text x="142.5" y="48" font-family="Poppins, Arial" font-weight="800" font-size="20" fill="#0E2A5C" text-anchor="middle">C</text><rect x="163" y="22" width="35" height="35" rx="5" fill="#fff"/><text x="180.5" y="48" font-family="Poppins, Arial" font-weight="800" font-size="20" fill="#0E2A5C" text-anchor="middle">O</text><rect x="201" y="22" width="35" height="35" rx="5" fill="#fff"/><text x="218.5" y="48" font-family="Poppins, Arial" font-weight="800" font-size="20" fill="#0E2A5C" text-anchor="middle">Q</text><rect x="239" y="22" width="35" height="35" rx="5" fill="#fff"/><text x="256.5" y="48" font-family="Poppins, Arial" font-weight="800" font-size="20" fill="#0E2A5C" text-anchor="middle">U</text><rect x="277" y="22" width="35" height="35" rx="5" fill="#fff"/><text x="294.5" y="48" font-family="Poppins, Arial" font-weight="800" font-size="20" fill="#0E2A5C" text-anchor="middle">I</text><rect x="125" y="60" width="35" height="35" rx="5" fill="#0B3B78" opacity=".55"/><rect x="163" y="60" width="35" height="35" rx="5" fill="#0B3B78" opacity=".55"/><rect x="201" y="60" width="35" height="35" rx="5" fill="#fff"/><text x="218.5" y="86" font-family="Poppins, Arial" font-weight="800" font-size="20" fill="#0E2A5C" text-anchor="middle">U</text><rect x="239" y="60" width="35" height="35" rx="5" fill="#0B3B78" opacity=".55"/><rect x="277" y="60" width="35" height="35" rx="5" fill="#0B3B78" opacity=".55"/><rect x="125" y="98" width="35" height="35" rx="5" fill="#fff"/><text x="142.5" y="124" font-family="Poppins, Arial" font-weight="800" font-size="20" fill="#0E2A5C" text-anchor="middle">P</text><rect x="163" y="98" width="35" height="35" rx="5" fill="#fff"/><text x="180.5" y="124" font-family="Poppins, Arial" font-weight="800" font-size="20" fill="#0E2A5C" text-anchor="middle">L</text><rect x="201" y="98" width="35" height="35" rx="5" fill="#fff"/><text x="218.5" y="124" font-family="Poppins, Arial" font-weight="800" font-size="20" fill="#0E2A5C" text-anchor="middle">E</text><rect x="239" y="98" width="35" height="35" rx="5" fill="#fff"/><text x="256.5" y="124" font-family="Poppins, Arial" font-weight="800" font-size="20" fill="#0E2A5C" text-anchor="middle">N</text><rect x="277" y="98" width="35" height="35" rx="5" fill="#fff"/><text x="294.5" y="124" font-family="Poppins, Arial" font-weight="800" font-size="20" fill="#0E2A5C" text-anchor="middle">A</text><rect x="125" y="136" width="35" height="35" rx="5" fill="#0B3B78" opacity=".55"/><rect x="163" y="136" width="35" height="35" rx="5" fill="#0B3B78" opacity=".55"/><rect x="201" y="136" width="35" height="35" rx="5" fill="#fff"/><text x="218.5" y="162" font-family="Poppins, Arial" font-weight="800" font-size="20" fill="#0E2A5C" text-anchor="middle">N</text><rect x="239" y="136" width="35" height="35" rx="5" fill="#0B3B78" opacity=".55"/><rect x="277" y="136" width="35" height="35" rx="5" fill="#fff"/><text x="294.5" y="162" font-family="Poppins, Arial" font-weight="800" font-size="20" fill="#0E2A5C" text-anchor="middle">P</text><rect x="125" y="174" width="35" height="35" rx="5" fill="#0B3B78" opacity=".55"/><rect x="163" y="174" width="35" height="35" rx="5" fill="#0B3B78" opacity=".55"/><rect x="201" y="174" width="35" height="35" rx="5" fill="#fff"/><text x="218.5" y="200" font-family="Poppins, Arial" font-weight="800" font-size="20" fill="#0E2A5C" text-anchor="middle">E</text><rect x="239" y="174" width="35" height="35" rx="5" fill="#fff"/><text x="256.5" y="200" font-family="Poppins, Arial" font-weight="800" font-size="20" fill="#0E2A5C" text-anchor="middle">P</text><rect x="277" y="174" width="35" height="35" rx="5" fill="#fff"/><text x="294.5" y="200" font-family="Poppins, Arial" font-weight="800" font-size="20" fill="#0E2A5C" text-anchor="middle">A</text><text x="130" y="36" font-family="Poppins, Arial" font-weight="700" font-size="9" fill="#0E5BA8">1</text></g>
<g transform="translate(330 170) rotate(35)" filter="url(#s)"><rect x="-6" y="-46" width="12" height="80" rx="3" fill="#FFE27A"/><path d="M-6 34 L0 48 L6 34 Z" fill="#E8C9A0"/><rect x="-6" y="-50" width="12" height="8" rx="2" fill="#D7263D"/></g>
</svg>