<svg xmlns="http://www.w3.org/2000/svg" viewBox="0 0 400 240" role="img">
<defs><linearGradient id="g" x1="0" y1="0" x2="1" y2="1"><stop offset="0" stop-color="#0E7A53"/><stop offset="1" stop-color="#063D2A"/></linearGradient>
<radialGradient id="l" cx=".2" cy=".15" r=".6"><stop offset="0" stop-color="#fff" stop-opacity=".28"/><stop offset="1" stop-color="#fff" stop-opacity="0"/></radialGradient>
<filter id="s" x="-20%" y="-20%" width="140%" height="140%"><feDropShadow dx="0" dy="6" stdDeviation="6" flood-color="#000" flood-opacity=".3"/></filter></defs>
<rect width="400" height="240" fill="url(#g)"/><rect width="400" height="240" fill="url(#l)"/>
<g transform="translate(120 125) rotate(-14)" filter="url(#s)"><rect x="-24" y="-46" width="48" height="92" rx="9" fill="#FBF8EF" stroke="#D8D0BC" stroke-width="2"/>
<line x1="-18" y1="0" x2="18" y2="0" stroke="#C9C2AE" stroke-width="2"/><circle cx="-9" cy="-32" r="4.2" fill="#14111F"/><circle cx="9" cy="-32" r="4.2" fill="#14111F"/><circle cx="-9" cy="-23" r="4.2" fill="#14111F"/><circle cx="9" cy="-23" r="4.2" fill="#14111F"/><circle cx="-9" cy="-14" r="4.2" fill="#14111F"/><circle cx="9" cy="-14" r="4.2" fill="#14111F"/><circle cx="-9" cy="14" r="4.2" fill="#14111F"/><circle cx="9" cy="14" r="4.2" fill="#14111F"/><circle cx="-9" cy="23" r="4.2" fill="#14111F"/><circle cx="9" cy="23" r="4.2" fill="#14111F"/><circle cx="-9" cy="32" r="4.2" fill="#14111F"/><circle cx="9" cy="32" r="4.2" fill="#14111F"/><circle cx="0" cy="0" r="3" fill="#B8A98A"/></g><g transform="translate(190 118) rotate(8)" filter="url(#s)"><rect x="-24" y="-46" width="48" height="92" rx="9" fill="#FBF8EF" stroke="#D8D0BC" stroke-width="2"/>
<line x1="-18" y1="0" x2="18" y2="0" stroke="#C9C2AE" stroke-width="2"/><circle cx="-9" cy="-32" r="4.2" fill="#14111F"/><circle cx="9" cy="-32" r="4.2" fill="#14111F"/><circle cx="-9" cy="-23" r="4.2" fill="#14111F"/><circle cx="9" cy="-23" r="4.2" fill="#14111F"/><circle cx="-9" cy="-14" r="4.2" fill="#14111F"/><circle cx="9" cy="-14" r="4.2" fill="#14111F"/><circle cx="-9" cy="14" r="4.2" fill="#14111F"/><circle cx="0" cy="23" r="4.2" fill="#14111F"/><circle cx="9" cy="32" r="4.2" fill="#14111F"/><circle cx="0" cy="0" r="3" fill="#B8A98A"/></g><g transform="translate(258 128) rotate(-6)" filter="url(#s)"><rect x="-24" y="-46" width="48" height="92" rx="9" fill="#FBF8EF" stroke="#D8D0BC" stroke-width="2"/>
<line x1="-18" y1="0" x2="18" y2="0" stroke="#C9C2AE" stroke-width="2"/><circle cx="-9" cy="-32" r="4.2" fill="#14111F"/><circle cx="0" cy="-23" r="4.2" fill="#14111F"/><circle cx="9" cy="-14" r="4.2" fill="#14111F"/><circle cx="-9" cy="14" r="4.2" fill="#14111F"/><circle cx="9" cy="14" r="4.2" fill="#14111F"/><circle cx="0" cy="23" r="4.2" fill="#14111F"/><circle cx="-9" cy="32" r="4.2" fill="#14111F"/><circle cx="9" cy="32" r="4.2" fill="#14111F"/><circle cx="0" cy="0" r="3" fill="#B8A98A"/></g><g transform="translate(318 112) rotate(16)" filter="url(#s)"><rect x="-24" y="-46" width="48" height="92" rx="9" fill="#FBF8EF" stroke="#D8D0BC" stroke-width="2"/>
<line x1="-18" y1="0" x2="18" y2="0" stroke="#C9C2AE" stroke-width="2"/><circle cx="-9" cy="-32" r="4.2" fill="#14111F"/><circle cx="9" cy="-32" r="4.2" fill="#14111F"/><circle cx="0" cy="-23" r="4.2" fill="#14111F"/><circle cx="-9" cy="-14" r="4.2" fill="#14111F"/><circle cx="9" cy="-14" r="4.2" fill="#14111F"/><circle cx="0" cy="23" r="4.2" fill="#14111F"/><circle cx="0" cy="0" r="3" fill="#B8A98A"/></g><circle cx="60" cy="200" r="70" fill="#fff" opacity=".05"/></svg>