<svg xmlns="http://www.w3.org/2000/svg" viewBox="0 0 64 64"><title>Boxeo</title>
<circle cx="32" cy="32" r="32" fill="#9C1F2E"/>
<g transform="translate(32 33) scale(.82) translate(-32 -31)">
<path d="M22 50h20a3 3 0 0 0 3-3v-5c4-2 7-6 7-12V22c0-6-5-11-11-11h-9c-6 0-11 5-11 11v4c-3 1-4 4-4 7 0 4 3 7 7 7h1v7a3 3 0 0 0 3 3z" fill="#E8333F" stroke="#fff" stroke-width="2.6" stroke-linejoin="round"/>
<path d="M18 33c0-3 2-5 5-5h5" fill="none" stroke="#fff" stroke-width="2.6" stroke-linecap="round"/>
<path d="M21 42h24" stroke="#fff" stroke-width="2.6" stroke-linecap="round"/>
<path d="M26 18c3-2 8-2 12 0" fill="none" stroke="#fff" stroke-opacity=".55" stroke-width="2" stroke-linecap="round"/>
</g>
</svg>
