<svg xmlns="http://www.w3.org/2000/svg" viewBox="0 0 15.6 30" width="15.6" height="30"><g fill="none" fill-rule="evenodd"><path d="m8.367 5.486.007.102c.214.124.322.226.538.364.571.36 1.275 1 1.186 3.203.16.48.231 1.424.38 1.727.297.59.496.974.583 1.531 0 0 .085.867.197.93.591.134.42.192.507.293.092.119.433.113.433.431.118.158.206.323.272.494v-11.463a2.37 2.37 0 0 0 -2.365-2.368h-2.264c.364.13.57.282.689.524.292.025.64.68.098 1.649.24.16.053.398-.119.675-.05.089-.105.247-.266.236-.205.433-.454.852-.641.878-.057.07-.098.256-.013.344.276.123.612.293.778.45m4.103 10.628a2.11 2.11 0 0 1 -1.965 1.33 2.11 2.11 0 0 1 -2.111-2.11c0-.995.684-1.83 1.613-2.053-.243-.61-.757-1.597-.91-1.92-.144-.322-.492-2.33-.567-2.727-.017-.087-.911.519-.913.556-.052.05-.67 1.666-.696 1.753-.013.055-.014.27-.014.27s.304.038.479.569c.173.53.7 2.463.7 2.463s-.142.148-.148.14c.667 2.232.434 3.193.733 3.848.376.922.478.801.8 1.577.232.565.49 2.788.576 2.886.36.457.554.813.554 1.07 0 .26-.305 1.025-.194 1.471.068.263.103.85.225.962 0 0 .112.221.057.32-.016.033-.048.084-.033.125.198.7.84 1.896-.199 2.522h.022a2.353 2.353 0 0 0 1.991-2.34z" fill="#b52532"/><path d="m9.804 26.371c-.38-.34-.126-.483-.142-.617-.25-1.037-1.074-1.664-.648-2.006-.105-.342-.319-.772-.311-.771-1.283-.737-2.376-1.934-2.561-2.11-.225-.244-.609-.49-.68-.688-.309-.283-1.821-2.428-2.173-3.218l-.614-.087c-.28-1.14-1.212-2.097-1.235-3.24-.008-.433.196-1.359.272-1.543.075-.188.432-.495.432-.495v-.306c-1.339.038-.954-.099-1.184-.62-.162-.36-.046-.44.012-.69.18-.737.777-1.875 1.023-2.392.076-.261.334-.89.334-.89.998-2.032 1.371-1.883 2.556-1.998l.058-.084c1.188-.052.993-.141 1.16-1.285-.172.074-.224-.359-.224-.359-.094-.65.18-.527.31-.54.029-1.07.138-1.408.91-1.703h-4a2.369 2.369 0 0 0 -2.369 2.371v23.727c0 1.309 1.06 2.37 2.37 2.37h7.005c-.802-.434-.328-1.259-.301-2.825" fill="#253b73"/></g></svg>