<svg xmlns="http://www.w3.org/2000/svg" viewBox="0 0 160 160" width="160" height="160">
<defs><linearGradient id="b" x1="0" y1="0" x2="1" y2="1"><stop offset="0" stop-color="#FCE7F3"/><stop offset="1" stop-color="#F9A8D4"/></linearGradient>
<clipPath id="c"><circle cx="80" cy="80" r="80"/></clipPath></defs>
<g clip-path="url(#c)">
<rect width="160" height="160" fill="url(#b)"/>
<path d="M44 130c-8-60 6-94 36-94s44 34 36 94c-10-6-14-30-14-50H58c0 20-4 44-14 50z" fill="#24160f"/>
<path d="M30 160c4-30 24-44 50-44s46 14 50 44z" fill="#F472B6"/>
<path d="M68 104h24v16c0 7-24 7-24 0z" fill="#D9A07A"/>
<path d="M66 116q14 10 28 0" fill="none" stroke="rgba(0,0,0,.12)" stroke-width="3"/>
<ellipse cx="80" cy="80" rx="27" ry="31" fill="#D9A07A"/>
<ellipse cx="53" cy="84" rx="5" ry="7" fill="#D9A07A"/><ellipse cx="107" cy="84" rx="5" ry="7" fill="#D9A07A"/>
<path d="M52 78c0-22 12-32 28-32s30 12 28 34c-6-14-16-20-34-18-8 2-16 8-22 16z" fill="#24160f"/>
<path d="M64 72q6-4 12 0M84 72q6-4 12 0" fill="none" stroke="#2b1a12" stroke-width="2.6" stroke-linecap="round"/>
<circle cx="70" cy="81" r="3.2" fill="#2b1a12"/><circle cx="90" cy="81" r="3.2" fill="#2b1a12"/>
<circle cx="71" cy="80" r="1" fill="#fff"/><circle cx="91" cy="80" r="1" fill="#fff"/>
<path d="M80 84v9q-3 2-5 0" fill="none" stroke="rgba(0,0,0,.25)" stroke-width="2" stroke-linecap="round"/>
<path d="M68 104q12 9 24 0" fill="none" stroke="#7a2e2e" stroke-width="3" stroke-linecap="round"/>
<circle cx="62" cy="94" r="5" fill="#e88" opacity=".25"/><circle cx="98" cy="94" r="5" fill="#e88" opacity=".25"/>
<path d="M72 116q8 8 16 0" fill="none" stroke="#E2B33C" stroke-width="1.6"/><path d="M80 122v10M76 126h8" stroke="#E2B33C" stroke-width="2.4" stroke-linecap="round"/>
</g></svg>